<svg width="364" height="96" viewBox="0 0 364 96" fill="none" xmlns="http://www.w3.org/2000/svg">
<path d="M235.874 50.4553C235.874 45.7296 235.03 41.163 233.36 36.7396C231.689 32.3162 229.143 28.3861 225.754 24.9333C222.365 21.4805 218.148 18.7596 213.12 16.7707C208.092 14.7817 202.189 13.7952 195.395 13.7952H168.281V89.6931H195.395C202.173 89.6931 208.076 88.627 213.12 86.5108C218.164 84.3945 222.365 81.5623 225.754 78.0299C229.143 74.4976 231.673 70.5356 233.36 66.1122C235.03 61.6888 235.874 57.2336 235.874 52.7147V50.4553ZM219.373 61.482C218.244 64.4574 216.605 67.051 214.441 69.2309C212.277 71.4267 209.683 73.1133 206.628 74.3226C203.573 75.5159 200.136 76.1206 196.302 76.1206H182.841V27.3359H196.302C200.136 27.3359 203.573 27.9087 206.628 29.0384C209.667 30.1681 212.277 31.7911 214.441 33.9233C216.605 36.0395 218.244 38.6012 219.373 41.5767C220.503 44.5521 221.076 47.8936 221.076 51.585C221.076 55.2765 220.503 58.5224 219.373 61.4979V61.482Z" fill="white"/>
<path d="M259.994 14.2885L234.519 89.2634H249.11L255.682 69.4377H288.348L295.11 89.2634H310.21L283.925 14.2885H259.994ZM259.819 57.0268L269.938 26.5244H273.725L284.131 57.0268H259.819Z" fill="white"/>
<path d="M331.597 76.948V57.3291H360.859V44.9977H331.597V26.6199H362.704V14.2885H317.309V89.2794H363.532V76.948H331.597Z" fill="white"/>
<path d="M144.444 15.0841C137.396 7.89208 125.685 12.6178 115.438 17.5504C113.417 16.5957 109.137 14.7022 102.979 12.6178C97.5691 10.7721 91.284 10.6448 86.065 12.7769C86.7652 14.5431 87.5766 16.2774 88.4518 17.9482C92.3024 16.4525 97.0281 16.6434 101.149 18.0277C104.125 19.0301 106.655 20.0166 108.675 20.844C103.997 22.6739 96.7257 22.1329 90.1702 20.9554C91.5386 23.2149 93.082 25.347 94.7527 27.3678C100.926 28.0201 107.339 27.8451 111.985 25.6016L114.674 24.2968C123.918 19.7462 135.438 14.0657 140.355 19.0938C146.115 24.9651 143.633 37.6307 139.766 46.6684C135.963 55.6107 135.932 61.2911 135.9 67.8466C135.9 68.8649 135.884 69.931 135.868 71.0448L135.836 73.1133C135.804 77.664 135.725 84.5219 133.497 86.3676C133.29 86.5585 132.718 87.0359 131.158 86.7654C128.055 86.2403 125.462 78.6505 123.759 73.6384C121.58 67.1942 119.829 62.1185 115.692 61.9753C108.325 61.7207 106.066 66.4782 104.666 71.6495C104.411 72.4928 104.188 73.4952 103.95 74.609C102.502 81.0054 100.735 87.2427 96.9167 86.8608C92.4933 86.4312 91.5863 79.4143 91.459 71.3949C89.5019 74.3067 87.8312 77.4094 86.4628 80.6872C87.4812 86.5585 90.027 91.9048 96.3598 92.5253C96.7258 92.5572 97.0599 92.589 97.3781 92.589C105.716 92.589 108.071 82.1829 109.487 75.8819C109.71 74.8636 109.916 73.9407 110.139 73.1929C111.476 68.2921 112.59 67.592 115.119 67.6875C116.074 68.7377 117.443 72.7792 118.365 75.5C120.895 82.9307 123.759 91.3161 130.219 92.398C133.64 92.9868 135.884 91.8411 137.157 90.791C141.389 87.2586 141.469 79.7961 141.548 73.2247L141.58 71.188C141.596 70.0424 141.612 68.9922 141.612 67.9262C141.644 61.7366 141.676 56.8359 145.033 48.9597C147.356 43.5338 154.15 25.0765 144.46 15.1636L144.444 15.0841Z" fill="white"/>
<path d="M126.64 46.9071V47.3685C110.41 49.3575 96.3441 58.427 87.6564 71.379C85.6993 74.2908 84.0286 77.3935 82.6602 80.6713C81.1805 84.14 80.0507 87.7996 79.3188 91.5707C79.0642 92.8118 78.8574 94.0847 78.7301 95.3735H77.839C77.6799 94.0847 77.4572 92.8118 77.1867 91.5707C72.5405 68.6263 52.9694 50.9645 28.7839 49.4848L0 47.7027V46.5889L28.768 44.8227C53.9241 43.2634 74.068 24.2332 77.664 0H78.8415C79.462 4.43931 80.6236 8.7195 82.2624 12.761C82.9625 14.5272 83.774 16.2616 84.6492 17.9323C85.2061 18.9506 85.763 19.953 86.3835 20.9395C87.7519 23.199 89.2953 25.3311 90.966 27.3519C99.7174 37.9171 112.335 45.1409 126.624 46.9071H126.64Z" fill="white"/>
</svg>
